:FULLY-SPECIFIED
:FORCE-ALL-JOINTS-BE-3DOF
:DEGREES
815
root 2.00426 16.5914 22.6726 3.42059 13.9406 -2.34467
lfemur -33.6814 -5.53056 -5.58503
ltibia 42.2549 -0 0
lfoot -14.4947 -7.61491 0.265343
ltoes 7.4039 -0 0
rfemur -8.68812 -1.40127 16.3655
rtibia 30.1635 -0 0
rfoot -19.6127 -9.11232 0.0337356
rtoes -15.9174 0 0
lowerback 1.23002 3.88579 3.13723
upperback -0.0903354 5.22572 -1.09106
thorax -0.311908 2.60335 -2.93342
lowerneck -4.97181 -2.6261 1.18623
upperneck -0.912713 -3.58498 1.79473
head 0.540025 -1.77002 0.263905
lclavicle -2.34992e-14 7.57274e-16 0
lhumerus -45.8509 -7.5743 79.4911
lradius 54.2341 -0 0
lwrist 21.947 0 0
lhand -9.37295 4.36535 -0.0924762
lfingers 7.12502 0 0
lthumb 11.9754 28.7224 -0.0888591
rclavicle -2.34992e-14 7.57274e-16 0
rhumerus -27.6913 47.6251 -98.602
rradius 60.3373 -0 0
rwrist 2.40906 0 0
rhand -17.1597 -24.2917 0.0540906
rfingers 7.12502 0 0
rthumb 4.51252 -49.7237 0.059704
816
root 2.03224 16.5881 22.8159 3.43188 13.2333 -2.35584
lfemur -33.6216 -5.65469 -5.4374
ltibia 41.9167 -0 0
lfoot -14.3398 -7.67121 0.291834
ltoes 7.3562 -0 0
rfemur -8.53049 -1.16944 16.3179
rtibia 29.9682 -0 0
rfoot -19.5151 -8.87965 0.063925
rtoes -15.9274 0 0
lowerback 1.21582 3.89852 3.1826
upperback -0.085841 5.24271 -1.05578
thorax -0.296469 2.61196 -2.92003
lowerneck -4.96916 -2.58334 1.21947
upperneck -0.870015 -3.53159 1.75963
head 0.550786 -1.74347 0.248047
lclavicle -1.8849e-14 6.05819e-16 0
lhumerus -45.7935 -7.51359 79.3763
lradius 54.0144 -0 0
lwrist 21.9627 0 0
lhand -9.25506 4.44538 -0.0988389
lfingers 7.12502 0 0
lthumb 12.0693 28.7746 -0.0951193
rclavicle -1.8849e-14 6.05819e-16 0
rhumerus -27.6435 47.5302 -98.3799
rradius 60.1409 -0 0
rwrist 2.35061 0 0
rhand -17.0545 -24.2872 0.060353
rfingers 7.12502 0 0
rthumb 4.59435 -49.6928 0.0667665
817
root 2.06022 16.5848 22.9591 3.50283 12.7286 -2.4462
lfemur -34.1469 -5.81193 -5.3381
ltibia 42.0875 -0 0
lfoot -14.3938 -7.67232 0.331879
ltoes 7.52799 -0 0
rfemur -8.43312 -0.934924 16.5847
rtibia 30.2128 -0 0
rfoot -19.7713 -8.85958 0.0898498
rtoes -16.2794 0 0
lowerback 1.21501 3.99709 3.29524
upperback -0.0855426 5.37492 -1.03605
thorax -0.281905 2.67815 -2.95979
lowerneck -5.05499 -2.58254 1.28381
upperneck -0.839955 -3.53627 1.75668
head 0.57244 -1.74549 0.235596
lclavicle -1.41989e-14 4.54364e-16 0
lhumerus -46.5502 -7.47867 80.5157
lradius 54.6621 -0 0
lwrist 22.3138 0 0
lhand -9.29608 4.59477 -0.105198
lfingers 7.12502 0 0
lthumb 12.4015 29.34 -0.101256
rclavicle -1.41989e-14 4.54364e-16 0
rhumerus -28.2265 47.29 -100.063
rradius 60.9641 -0 0
rwrist 2.30502 0 0
rhand -17.1754 -24.6714 0.0722283
rfingers 7.12502 0 0
rthumb 4.84556 -50.4691 0.0798362
818
root 2.0882 16.5814 23.1024 3.64544 12.444 -2.63113
lfemur -35.3532 -6.01033 -5.29003
ltibia 42.8373 -0 0
lfoot -14.6897 -7.60406 0.387429
ltoes 7.9615 -0 0
rfemur -8.39984 -0.690306 17.2239
rtibia 30.963 -0 0
rfoot -20.4443 -9.08744 0.111013
rtoes -17.037 0 0
lowerback 1.22954 4.19809 3.48927
upperback -0.0901153 5.64459 -1.03373
thorax -0.267811 2.81305 -3.06233
lowerneck -5.24543 -2.63007 1.38614
upperneck -0.824072 -3.60799 1.79089
head 0.607155 -1.78047 0.226739
lclavicle -9.54876e-15 3.0291e-16 0
lhumerus -48.2433 -7.46258 83.0196
lradius 56.2933 -0 0
lwrist 23.0583 0 0
lhand -9.52189 4.82822 -0.111606
lfingers 7.12502 0 0
lthumb 13.0181 30.5079 -0.107226
rclavicle -9.54876e-15 3.0291e-16 0
rhumerus -29.5684 46.817 -103.702
rradius 62.9364 -0 0
rwrist 2.27189 0 0
rhand -17.5571 -25.5109 0.0905321
rfingers 7.12502 0 0
rthumb 5.30291 -52.1679 0.0994436
819
root 2.11618 16.5781 23.2456 3.87467 12.4003 -2.93135
lfemur -37.342 -6.25704 -5.2949
ltibia 44.2272 -0 0
lfoot -15.2664 -7.4417 0.460426
ltoes 8.71235 -0 0
rfemur -8.43204 -0.426243 18.306
rtibia 32.2877 -0 0
rfoot -21.6087 -9.60919 0.126641
rtoes -18.279 0 0
lowerback 1.26154 4.5226 3.78253
upperback -0.100517 6.08006 -1.05111
thorax -0.253538 3.03084 -3.23963
lowerneck -5.56042 -2.73373 1.5353
upperneck -0.824176 -3.75775 1.86855
head 0.657664 -1.85385 0.221693
lclavicle -4.89862e-15 1.51455e-16 0
lhumerus -50.9837 -7.44372 86.8651
lradius 58.9925 -0 0
lwrist 24.2617 0 0
lhand -9.96417 5.16335 -0.118023
lfingers 7.12502 0 0
lthumb 13.9762 32.377 -0.11283
rclavicle -4.89862e-15 1.51455e-16 0
rhumerus -31.8477 45.9654 -109.01
rradius 66.1354 -0 0
rwrist 2.24969 0 0
rhand -18.2385 -26.8809 0.115916
rfingers 7.12502 0 0
rthumb 6.0151 -54.8828 0.12553
